<?xml version="1.0" encoding="utf-8"?>
<!-- Generator: Adobe Illustrator 17.1.0, SVG Export Plug-In . SVG Version: 6.00 Build 0)  -->
<!DOCTYPE svg PUBLIC "-//W3C//DTD SVG 1.1//EN" "http://www.w3.org/Graphics/SVG/1.1/DTD/svg11.dtd">
<svg version="1.1" id="Layer_2" xmlns="http://www.w3.org/2000/svg" xmlns:xlink="http://www.w3.org/1999/xlink" x="0px" y="0px"
	 viewBox="0 0 120 120" enable-background="new 0 0 120 120" xml:space="preserve">
<path fill="#31AFE2" d="M88.3,27.3c-1-2.2-2.7-3.8-4.9-4.7c-1-0.4-2.1-0.6-3.2-0.6c-3.7,0-6.9,2.2-8.3,5.6l-4.1,10.5l-1.7-11.1
	c-0.3-2.1-1.4-4-3-5.4c-1.6-1.4-3.6-2.1-5.7-2.1h0c-0.4,0-0.9,0-1.3,0.1c-2.3,0.4-4.4,1.6-5.8,3.5c-1.4,1.9-2,4.2-1.6,6.6l2.1,13.9
	c-0.3,0-0.6,0-0.9,0c-3.2,0-6,1.7-7.5,4.2c-0.8-0.3-1.7-0.4-2.6-0.4c-4.9,0-8.9,4-8.9,8.9v16.5c0,15.3,12.5,27.8,27.8,27.8
	c15.3,0,27.8-12.5,27.8-27.8v-8.9c0-4-2.7-7.4-6.3-8.5l8.2-21.2C89.4,31.9,89.3,29.5,88.3,27.3z M56.9,24.6c0.2,0,0.4,0,0.6,0
	c1.8,0,3.5,1.4,3.7,3.2l3.4,22.4c-1.4-0.4-2.8-0.4-4.2,0c-1.2,0.4-2.3,1-3.2,1.9l-3.5-23.1C53.4,26.9,54.8,24.9,56.9,24.6z M36,56.2
	c0-2.1,1.7-3.8,3.8-3.8c2.1,0,3.8,1.7,3.8,3.7c0,0,0,0,0,0.1v13.9c0,2.1-1.7,3.8-3.8,3.8c-2.1,0-3.8-1.7-3.8-3.8V56.2z M46.1,52.4
	L46.1,52.4c0-2.2,1.7-3.8,3.8-3.8s3.8,1.7,3.8,3.8v13.9c0,2.1-1.7,3.8-3.8,3.8c-2.1,0-3.8-1.7-3.8-3.8L46.1,52.4L46.1,52.4z
	 M58.7,95.4c-11.7,0-21.3-8.8-22.6-20.1c1,0.7,2.3,1.2,3.6,1.2c3.1,0,5.7-2.2,6.2-5.2c1.1,0.9,2.4,1.4,3.9,1.4
	c3.5,0,6.3-2.8,6.3-6.3v-4.7c0.6,1,1.6,1.9,2.7,2.5l10.6,5.8l-4.2,5.8c-0.4,0.6-0.3,1.4,0.3,1.8c0.2,0.2,0.5,0.2,0.7,0.2
	c0.4,0,0.8-0.2,1-0.5l5.1-7c0.2-0.3,0.3-0.7,0.2-1c-0.1-0.4-0.3-0.7-0.6-0.8l-11.9-6.5c-1.2-0.6-2.1-1.7-2.4-3
	c-0.4-1.3-0.2-2.7,0.4-3.9c0.6-1.2,1.7-2.1,3-2.4c1.3-0.4,2.7-0.2,3.9,0.4l13.9,7.6c1.6,0.9,2.6,2.6,2.6,4.4v7.6
	C81.5,85.2,71.3,95.4,58.7,95.4z M83.8,32.3l-9.1,23.2L68,51.8l8.7-22.3c0.6-1.5,2-2.4,3.5-2.4c0.5,0,0.9,0.1,1.4,0.3
	C83.6,28.1,84.5,30.3,83.8,32.3z"/>
</svg>
