<?xml version="1.0" encoding="utf-8"?>
<!-- Generator: Adobe Illustrator 17.1.0, SVG Export Plug-In . SVG Version: 6.00 Build 0)  -->
<!DOCTYPE svg PUBLIC "-//W3C//DTD SVG 1.1//EN" "http://www.w3.org/Graphics/SVG/1.1/DTD/svg11.dtd">
<svg version="1.1" id="Layer_2" xmlns="http://www.w3.org/2000/svg" xmlns:xlink="http://www.w3.org/1999/xlink" x="0px" y="0px"
	 viewBox="0 0 120 120" enable-background="new 0 0 120 120" xml:space="preserve">
<path fill="#31AFE2" d="M92.9,46.6c1.7-1.8,2.8-4.3,2.8-7c0-5.6-4.6-10.2-10.2-10.2c-5.6,0-10.2,4.6-10.2,10.2c0,2.7,1.1,5.2,2.8,7
	c-1,0.5-1.9,1.2-2.7,1.9c-1.7-2.9-4.2-5.3-7.1-6.8c2.7-2.3,4.5-5.8,4.5-9.7c0-7-5.7-12.7-12.7-12.7S47.3,25,47.3,32
	c0,3.9,1.7,7.3,4.5,9.7c-3,1.6-5.5,3.9-7.1,6.8c-0.8-0.7-1.7-1.4-2.7-1.9c1.7-1.8,2.8-4.3,2.8-7c0-5.6-4.6-10.2-10.2-10.2
	S24.3,34,24.3,39.6c0,2.7,1.1,5.2,2.8,7c-4.7,2.6-7.9,7.6-7.9,13.4v10.2c0,2.8,2.3,5.1,5.1,5.1V88c0,2.8,2.3,5.1,5.1,5.1h10.2
	c2.8,0,5.1-2.3,5.1-5.1v-8.3c0.7,0.4,1.6,0.7,2.5,0.7v15.3c0,2.8,2.3,5.1,5.1,5.1h15.3c2.8,0,5.1-2.3,5.1-5.1V80.4
	c0.9,0,1.8-0.3,2.5-0.7V88c0,2.8,2.3,5.1,5.1,5.1h10.2c2.8,0,5.1-2.3,5.1-5.1V75.3c2.8,0,5.1-2.3,5.1-5.1V60
	C100.8,54.3,97.6,49.2,92.9,46.6z M34.5,34.5c2.8,0,5.1,2.3,5.1,5.1c0,2.8-2.3,5.1-5.1,5.1c-2.8,0-5.1-2.3-5.1-5.1
	C29.4,36.8,31.7,34.5,34.5,34.5z M39.6,61.3V88h-3.8V70.2c0-0.7-0.6-1.3-1.3-1.3s-1.3,0.6-1.3,1.3V88h-3.8V61.3
	c0-0.7-0.6-1.3-1.3-1.3c-0.7,0-1.3,0.6-1.3,1.3v8.9h-2.5V60c0-5.6,4.6-10.2,10.2-10.2c3.3,0,6.2,1.5,8,3.9c-0.3,1.2-0.4,2.4-0.4,3.7
	V60h-1.3C40.2,60,39.6,60.6,39.6,61.3z M85.5,34.5c2.8,0,5.1,2.3,5.1,5.1c0,2.8-2.3,5.1-5.1,5.1c-2.8,0-5.1-2.3-5.1-5.1
	C80.4,36.8,82.7,34.5,85.5,34.5z M60,24.3c4.2,0,7.6,3.4,7.6,7.6c0,4.2-3.4,7.6-7.6,7.6s-7.6-3.4-7.6-7.6
	C52.4,27.8,55.8,24.3,60,24.3z M72.7,75.3h-2.5V58.7c0-0.7-0.6-1.3-1.3-1.3c-0.7,0-1.3,0.6-1.3,1.3v36.9h-6.4V75.3
	c0-0.7-0.6-1.3-1.3-1.3s-1.3,0.6-1.3,1.3v20.4h-6.4V58.7c0-0.7-0.6-1.3-1.3-1.3c-0.7,0-1.3,0.6-1.3,1.3v16.6h-2.5V57.5
	c0-7,5.7-12.7,12.7-12.7s12.7,5.7,12.7,12.7V75.3z M95.7,70.2h-2.5v-8.9c0-0.7-0.6-1.3-1.3-1.3s-1.3,0.6-1.3,1.3V88h-3.8V70.2
	c0-0.7-0.6-1.3-1.3-1.3s-1.3,0.6-1.3,1.3V88h-3.8V61.3c0-0.7-0.6-1.3-1.3-1.3h-1.3v-2.5c0-1.3-0.1-2.5-0.4-3.7
	c1.9-2.4,4.8-3.9,8-3.9c5.6,0,10.2,4.6,10.2,10.2V70.2z"/>
</svg>
