<?xml version="1.0" encoding="utf-8"?>
<!-- Generator: Adobe Illustrator 17.1.0, SVG Export Plug-In . SVG Version: 6.00 Build 0)  -->
<!DOCTYPE svg PUBLIC "-//W3C//DTD SVG 1.1//EN" "http://www.w3.org/Graphics/SVG/1.1/DTD/svg11.dtd">
<svg version="1.1" id="Layer_2" xmlns="http://www.w3.org/2000/svg" xmlns:xlink="http://www.w3.org/1999/xlink" x="0px" y="0px"
	 viewBox="0 0 120 120" enable-background="new 0 0 120 120" xml:space="preserve">
<path fill="#31AFE2" d="M75,19.9H45c-5.5,0-10,4.5-10,10v60.1c0,5.5,4.5,10,10,10H75c5.5,0,10-4.5,10-10V29.9
	C85.1,24.4,80.6,19.9,75,19.9z M40,29.9c0-2.8,2.3-5,5-5H75c2.8,0,5,2.3,5,5v7.5H40V29.9z M40,40H80v37.6H40V40z M80,90.1
	c0,2.8-2.3,5-5,5H45c-2.8,0-5-2.3-5-5V80H80V90.1z M60,92.6c2.8,0,5-2.2,5-5c0-2.8-2.2-5-5-5s-5,2.2-5,5C55,90.3,57.2,92.6,60,92.6z
	 M60,85.1c1.4,0,2.5,1.1,2.5,2.5c0,1.4-1.1,2.5-2.5,2.5s-2.5-1.1-2.5-2.5C57.5,86.2,58.6,85.1,60,85.1z M66.3,31.2
	c0,0.7-0.6,1.3-1.3,1.3H55c-0.7,0-1.3-0.6-1.3-1.3c0-0.7,0.6-1.3,1.3-1.3h10C65.7,29.9,66.3,30.5,66.3,31.2z"/>
</svg>
